<svg xmlns="http://www.w3.org/2000/svg" xmlns:xlink="http://www.w3.org/1999/xlink" fill="none" version="1.1" width="28" height="28" viewBox="0 0 28 28"><g><path d="M9.624348251930236,13.416992172058105Q9.738908451930238,13.416991272058105,9.853330251930236,13.411370272058106Q9.967753051930236,13.405749272058106,10.081761951930236,13.394520772058106Q10.195769951930236,13.383291272058106,10.309090251930236,13.366481772058105Q10.422409651930236,13.349672272058106,10.534769651930237,13.327322972058106Q10.647127251930236,13.304973572058106,10.758255251930237,13.277138672058106Q10.869382251930237,13.249302872058106,10.979010251930237,13.216047272058105Q11.088637251930237,13.182791672058105,11.196501251930236,13.144197472058105Q11.304365251930237,13.105603172058105,11.410204251930237,13.061762772058106Q11.516044251930238,13.017922372058106,11.619604251930237,12.968941672058106Q11.723166251930238,12.919960972058105,11.824200251930236,12.865958172058106Q11.925232251930236,12.811953572058105,12.023494251930236,12.753058472058106Q12.121756251930236,12.694162372058106,12.217009251930238,12.630516072058105Q12.312262251930237,12.566869772058105,12.404278251930236,12.498625772058105Q12.496294251930237,12.430382772058106,12.584851251930237,12.357707072058105Q12.673407251930238,12.285030372058106,12.758290251930237,12.208096472058106Q12.843172251930238,12.131162672058105,12.924179251930237,12.050156572058105Q13.005186251930237,11.969150072058106,13.082119251930237,11.884266372058105Q13.159054251930236,11.799383172058105,13.231731251930237,11.710826872058107Q13.304407251930236,11.622270572058106,13.372650251930237,11.530254372058106Q13.440894251930237,11.438239072058106,13.504539251930236,11.342985672058106Q13.568185251930236,11.247732172058106,13.627080251930236,11.149470772058105Q13.685976251930237,11.051209472058105,13.739980251930238,10.950176272058105Q13.793983251930237,10.849143072058105,13.842964251930237,10.745581672058105Q13.891943251930236,10.642020272058105,13.935785251930238,10.536180472058106Q13.979624251930236,10.430340772058106,14.018218251930238,10.322477372058106Q14.056813251930237,10.214613872058106,14.090068251930237,10.104987172058106Q14.123324251930237,9.995359372058106,14.151160251930238,9.884232472058105Q14.178995251930237,9.773105572058105,14.201346251930238,9.660746572058105Q14.223695251930236,9.548387572058106,14.240506251930237,9.435067672058105Q14.257315251930237,9.321747772058107,14.268544251930237,9.207739372058105Q14.279772251930236,9.093730972058106,14.285394251930237,8.979308172058104Q14.291014251930237,8.864885772058106,14.291015251930236,8.750325672058105Q14.291014251930237,8.635765072058106,14.285393251930238,8.521343272058106Q14.279772251930236,8.406920872058105,14.268544251930237,8.292912472058106Q14.257315251930237,8.178903572058106,14.240505251930237,8.065583272058106Q14.223695251930236,7.952262872058105,14.201346251930238,7.839903872058105Q14.178995251930237,7.727545072058105,14.151160251930238,7.616418372058106Q14.123324251930237,7.5052912720581055,14.090069251930236,7.395663972058106Q14.056815251930237,7.286036472058106,14.018219251930237,7.178173072058105Q13.979626251930236,7.070309372058105,13.935786251930237,6.964469472058106Q13.891945251930236,6.858629472058105,13.842965251930236,6.7550682720581054Q13.793984251930237,6.651507172058105,13.739981251930237,6.550474172058106Q13.685977251930236,6.449440972058106,13.627081251930237,6.351179572058106Q13.568185251930236,6.2529177720581055,13.504539251930236,6.157664572058105Q13.440894251930237,6.062411272058105,13.372650251930237,5.970395672058105Q13.304407251930236,5.878380072058105,13.231731251930237,5.789823872058106Q13.159054251930236,5.701267472058106,13.082120251930236,5.616384072058105Q13.005186251930237,5.5315003720581055,12.924179251930237,5.450494072058105Q12.843172251930238,5.369487772058106,12.758290251930237,5.292553772058105Q12.673407251930238,5.215619772058106,12.584851251930237,5.142943572058106Q12.496294251930237,5.0702673820581055,12.404278251930236,5.002023872058105Q12.312262251930237,4.933780432058105,12.217009251930238,4.870134172058106Q12.121756251930236,4.806487922058105,12.023494251930236,4.747592212058105Q11.925232251930236,4.6886965020581055,11.824200251930236,4.634693142058105Q11.723166251930238,4.580689852058105,11.619604251930237,4.531709042058106Q11.516043251930236,4.482728242058106,11.410203251930238,4.4388879520581055Q11.304364251930236,4.395047662058105,11.196500251930237,4.356453482058106Q11.088637251930237,4.317859322058106,10.979010251930237,4.284604252058106Q10.869382251930237,4.251349182058106,10.758255251930237,4.223513302058105Q10.647127251930236,4.1956774420581056,10.534769651930237,4.173327848058105Q10.422409651930236,4.150978252058105,10.309090251930236,4.134168781058105Q10.195769951930236,4.117359310058106,10.081761951930236,4.106130445058105Q9.967753051930236,4.094901579058106,9.853331251930237,4.089280375758105Q9.738908451930238,4.0836591720581055,9.624348251930236,4.0836591720581055Q9.509787151930237,4.0836591720581055,9.395365351930236,4.089280375758105Q9.280943551930237,4.094901579058106,9.166935551930237,4.106130445058105Q9.052925751930237,4.117359310058106,8.939606351930237,4.134168781058105Q8.826285051930236,4.150978252058105,8.713926951930237,4.173327848058105Q8.601567851930238,4.1956774420581056,8.490440451930237,4.223513302058105Q8.379313551930236,4.251349182058106,8.269686851930237,4.284604252058106Q8.160059051930237,4.317859322058106,8.052195151930237,4.356453512058105Q7.944331751930237,4.395047662058105,7.838492051930237,4.4388879520581055Q7.732652351930237,4.482728242058106,7.629090951930237,4.531709042058106Q7.525529551930237,4.580689852058105,7.424496751930237,4.634693202058106Q7.323463051930236,4.6886965020581055,7.2252017519302365,4.747592212058105Q7.126940351930237,4.806487922058105,7.0316869519302365,4.870134232058105Q6.936433451930236,4.933780432058105,6.8444181519302365,5.002023932058106Q6.752402851930237,5.0702673820581055,6.663846651930236,5.142943572058106Q6.575290351930237,5.215619772058106,6.490406651930237,5.292553772058105Q6.405522951930237,5.369487772058106,6.324516851930237,5.450494072058105Q6.243510351930237,5.5315003720581055,6.166576551930237,5.616383872058106Q6.0896426519302365,5.701267472058106,6.016966451930236,5.789823772058106Q5.944290251930237,5.878380072058105,5.876046751930237,5.970395572058106Q5.807802751930237,6.062411272058105,5.744156451930237,6.157664572058105Q5.680510151930237,6.2529177720581055,5.621615051930237,6.351179572058106Q5.562718951930237,6.449440972058106,5.508716251930236,6.550474172058106Q5.454712551930236,6.651507172058105,5.405731751930237,6.7550682720581054Q5.356751051930237,6.858629472058105,5.3129106519302365,6.964469472058106Q5.269070251930237,7.070309372058105,5.2304760519302365,7.178172872058106Q5.191881751930237,7.286036472058106,5.1586271519302365,7.395663772058105Q5.125372051930237,7.505290972058106,5.097535751930237,7.616417872058106Q5.0696998519302365,7.727545072058105,5.047350551930236,7.839903872058105Q5.025001151930237,7.952262872058105,5.008191751930237,8.065583272058106Q4.991382251930236,8.178903572058106,4.9801536519302365,8.292912472058106Q4.968924651930237,8.406920872058105,4.9633032519302365,8.521343272058106Q4.957682251930237,8.635765072058106,4.957682251930237,8.750325672058105Q4.957682251930237,8.864885772058106,4.963303651930237,8.979308172058104Q4.968924651930237,9.093730972058106,4.9801536519302365,9.207739372058105Q4.991382251930236,9.321747772058107,5.008191751930237,9.435067672058105Q5.025001151930237,9.548387572058106,5.047350551930236,9.660746572058105Q5.0696998519302365,9.773105572058105,5.0975362519302365,9.884232472058105Q5.125372051930237,9.995359372058106,5.1586271519302365,10.104987172058106Q5.191881751930237,10.214614372058104,5.2304760519302365,10.322477772058106Q5.269070251930237,10.430341272058104,5.3129106519302365,10.536180972058105Q5.356751051930237,10.642020672058106,5.405731751930237,10.745582072058106Q5.454712551930236,10.849143472058106,5.508715751930237,10.950176672058106Q5.562718951930237,11.051209472058105,5.621614551930237,11.149471272058104Q5.680510151930237,11.247732672058106,5.744156451930237,11.342986072058105Q5.807802751930237,11.438239072058106,5.876046751930237,11.530254372058106Q5.944290251930237,11.622270572058106,6.016966451930236,11.710826872058107Q6.0896426519302365,11.799383172058105,6.166576551930237,11.884266372058105Q6.243510351930237,11.969150072058106,6.324516851930237,12.050156572058105Q6.405522951930237,12.131162672058105,6.490406651930237,12.208096472058106Q6.575290351930237,12.285030372058106,6.663846651930236,12.357707072058105Q6.752402851930237,12.430382772058106,6.8444181519302365,12.498625772058105Q6.936433451930236,12.566869772058105,7.0316869519302365,12.630516072058105Q7.126940351930237,12.694162372058106,7.2252017519302365,12.753058472058106Q7.323463051930236,12.811953572058105,7.424496751930237,12.865957272058106Q7.525529551930237,12.919960972058105,7.629090951930237,12.968941672058106Q7.732652351930237,13.017922372058106,7.838492051930237,13.061762772058106Q7.944331751930237,13.105603172058105,8.052195651930237,13.144198372058105Q8.160059051930237,13.182791672058105,8.269686851930237,13.216047272058105Q8.379313551930236,13.249302872058106,8.490440451930237,13.277137772058106Q8.601567851930238,13.304973572058106,8.713926951930237,13.327322972058106Q8.826285051930236,13.349672272058106,8.939606351930237,13.366481772058105Q9.052925751930237,13.383291272058106,9.166935551930237,13.394520772058106Q9.280943551930237,13.405749272058106,9.395365351930236,13.411370272058106Q9.509787151930237,13.416991272058105,9.624348251930236,13.416992172058105ZM9.624456951930236,11.861057272058105Q9.777296651930238,11.861057272058105,9.929399151930237,11.846076972058105Q10.081502551930237,11.831095672058105,10.231403951930236,11.801277672058106Q10.381306251930237,11.771460572058105,10.527564651930236,11.727093672058105Q10.673823251930237,11.682726872058105,10.815027251930237,11.624237572058107Q10.956232251930237,11.565749172058105,11.091025251930237,11.493700972058106Q11.225817251930236,11.421652772058106,11.352897251930237,11.336739572058105Q11.479979251930237,11.251827272058105,11.598125251930236,11.154867172058106Q11.716272251930237,11.057907572058106,11.824345251930238,10.949833872058106Q11.932419251930236,10.841760672058106,12.029378251930236,10.723614672058105Q12.126338251930237,10.605467772058105,12.211251251930237,10.478386372058106Q12.296164251930238,10.351305972058105,12.368212251930236,10.216513672058106Q12.440260251930237,10.081721272058106,12.498748251930238,9.940516472058105Q12.557238251930237,9.799311672058106,12.601605251930236,9.653053772058104Q12.645972251930237,9.506795872058106,12.675788251930237,9.356893572058105Q12.705607251930237,9.206991172058107,12.720588251930236,9.054888272058106Q12.735569251930237,8.902785272058106,12.735568251930237,8.749946072058105Q12.735569251930237,8.597106972058105,12.720587251930237,8.445003972058107Q12.705607251930237,8.292901072058106,12.675788251930237,8.142998172058105Q12.645972251930237,7.993095872058106,12.601605251930236,7.846837972058106Q12.557238251930237,7.700580072058106,12.498748251930238,7.559375072058105Q12.440260251930237,7.418170472058105,12.368213251930237,7.2833781720581054Q12.296164251930238,7.148586272058106,12.211251251930237,7.021504872058106Q12.126338251930237,6.894423972058105,12.029378251930236,6.7762779720581054Q11.932418251930237,6.658131572058105,11.824344251930237,6.5500581720581055Q11.716271251930237,6.441984672058105,11.598125251930236,6.345024572058105Q11.479979251930237,6.248064472058106,11.352896251930236,6.1631517720581055Q11.225815251930237,6.078238972058106,11.091023251930237,6.006190972058105Q10.956231251930237,5.934143072058106,10.815026251930236,5.875653972058106Q10.673822251930236,5.817165172058106,10.527564651930236,5.772798272058106Q10.381306251930237,5.728431472058105,10.231403951930236,5.698614072058105Q10.081502551930237,5.668796772058105,9.929400051930237,5.653815972058105Q9.777296651930238,5.638834972058105,9.624456951930236,5.638834972058105Q9.471618251930236,5.638834972058105,9.319514851930236,5.6538158720581055Q9.167412351930237,5.668796672058106,9.017509151930236,5.698613972058105Q8.867606751930238,5.728431472058105,8.721348451930236,5.772798372058105Q8.575091051930237,5.817165272058105,8.433885651930236,5.875654072058105Q8.292681351930238,5.9341432720581055,8.157889451930238,6.006191272058105Q8.023097151930237,6.078238972058106,7.8960157519302365,6.1631517720581055Q7.768934851930237,6.248064772058106,7.650788951930237,6.345024872058105Q7.532642951930237,6.441984872058105,7.424568751930237,6.550058372058105Q7.316495551930236,6.658132072058105,7.219535451930237,6.776278272058105Q7.122575451930237,6.894424472058105,7.0376621519302365,7.0215053720581055Q6.952749851930236,7.148586772058105,6.880701651930237,7.283378872058106Q6.8086539519302365,7.418170672058105,6.750164651930237,7.559375272058105Q6.691675751930237,7.700580372058106,6.647308951930237,7.846838272058106Q6.602942151930237,7.993096372058106,6.573124551930237,8.142998672058106Q6.543307851930237,8.292901072058106,6.528327551930237,8.445003972058107Q6.513346351930237,8.597106972058105,6.513346351930237,8.749946072058105Q6.513346351930237,8.902785272058106,6.528327551930237,9.054888272058106Q6.543307851930237,9.206991172058107,6.573125051930237,9.356893572058105Q6.602942551930237,9.506795872058106,6.647309451930237,9.653053772058104Q6.691675751930237,9.799311672058106,6.750164651930237,9.940516472058105Q6.8086539519302365,10.081721272058106,6.880701651930237,10.216513172058105Q6.952749851930236,10.351304972058106,7.0376621519302365,10.478385972058106Q7.122575451930237,10.605467272058107,7.2195359519302365,10.723613772058105Q7.316495551930236,10.841759672058107,7.424569251930237,10.949833372058105Q7.532642951930237,11.057907072058105,7.650788951930237,11.154867172058106Q7.768934851930237,11.251827272058105,7.8960157519302365,11.336739572058105Q8.023097151930237,11.421652772058106,8.157889051930237,11.493700472058105Q8.292681351930238,11.565748672058106,8.433885251930237,11.624237072058104Q8.575091051930237,11.682726872058105,8.721348451930236,11.727093672058105Q8.867606751930238,11.771460572058105,9.017509151930236,11.801277672058106Q9.167412351930237,11.831095672058105,9.319515851930237,11.846076972058105Q9.471618251930236,11.861057272058105,9.624456951930236,11.861057272058105ZM11.782877251930238,16.734939172058105Q11.782877251930238,15.898831172058106,12.041212251930236,15.166667172058105L6.657700151930237,15.166667172058105C4.245164251930237,15.166667172058105,2.077626151930237,16.745104172058106,1.191192801930237,19.147467172058107L0.7859336719302368,20.245780172058105C0.6516387909302368,20.609738172058105,0.5826822519302368,20.997557172058105,0.5826822519302368,21.388888172058106C0.5826822519302368,23.107108172058105,1.883629651930237,24.499999172058107,3.488429651930237,24.499999172058107L15.759491251930237,24.499999172058107C16.032711251930237,24.499999172058107,16.304098251930235,24.458745172058105,16.565710251930234,24.377848172058105Q15.438893251930237,23.590552172058107,14.577548251930237,22.749999172058107L3.4940131519302366,22.749999172058107C2.852627651930237,22.749999172058107,2.332682251930237,22.169629172058105,2.332682251930237,21.453704172058107C2.332682251930237,21.290648172058106,2.3602416519302367,21.129058172058105,2.413914951930237,20.977408172058105L2.8188368519302367,19.833333172058104C3.441813551930237,18.073161172058107,4.965139051930237,16.916667172058105,6.6606465519302365,16.916667172058105L11.785022251930236,16.916667172058105Q11.782877251930238,16.826009172058107,11.782877251930238,16.734939172058105Z" fill-rule="evenodd" fill="#000000" fill-opacity="1"/></g><path d="M19.6000576,14.02492499Q20.62359,13.23000002,22.0315781,13.2299999Q23.6514235,13.23000002,24.802327,14.32335883Q25.97,15.4326478,25.97,17.0099995Q25.97,21.1196442,20.519382,24.177149Q19.599999,24.692874,18.680616399999998,24.177149Q13.22999972,21.1196451,13.23000002,17.0099995Q13.23000002,15.4326472,14.39767197,14.32335877Q15.5485762,13.2299999,17.168421,13.22999972Q18.5762291,13.22999996,19.6000576,14.02492499ZM20.1089211,15.6582984Q20.1458273,15.6258128,20.1783028,15.5888968Q20.898688800000002,14.76999992,22.0315781,14.76999986Q23.0365391,14.76999998,23.7416534,15.4398581Q24.429999000000002,16.0937872,24.429999000000002,17.0099995Q24.429999000000002,20.2177587,19.7659659,22.8340311Q19.5999994,22.927129700000002,19.4340348,22.8340321Q14.76999968,20.217759100000002,14.76999998,17.0099995Q14.76999998,16.0937865,15.458346,15.4398578Q16.1634598,14.76999968,17.168421,14.76999968Q18.301229499999998,14.76999998,19.0221796,15.5890629Q19.0722876,15.6459897,19.1325378,15.6920471Q19.1927891,15.7381046,19.2608671,15.7715228Q19.3289456,15.8049409,19.402236000000002,15.8244355Q19.4755259,15.8439301,19.5512109,15.848752Q19.6268959,15.8535738,19.7020674,15.8435376Q19.7772384,15.8335013,19.8490076,15.8089927Q19.9207764,15.7844841,19.986385300000002,15.7464451Q20.0519943,15.7084061,20.1089211,15.6582984Z" fill-rule="evenodd" fill="#000000" fill-opacity="1"/></svg>