<svg xmlns="http://www.w3.org/2000/svg" xmlns:xlink="http://www.w3.org/1999/xlink" fill="none" version="1.1" width="28" height="28" viewBox="0 0 28 28"><g><path d="M25.1998046875,7.4668617125C25.1998046875,5.6627318125,23.7854846875,4.2001953125,22.0408286875,4.2001953125L5.9587790875,4.2001953125C4.2141255875,4.2001953125,2.7998046875,5.6627318125,2.7998046875,7.4668617125L2.7998046875,11.818117112500001L3.4890354275,11.9629831125C4.4259451875,12.159716612499999,5.099255787500001,13.0115728125,5.099255787500001,14.0001955125C5.099255787500001,14.9888173125,4.4259451875,15.8406733125,3.4890354275,16.0374073125L2.7998046875,16.1823653125L2.7998046875,20.5335293125C2.7998046875,22.3376583125,4.2141255875,23.8001953125,5.9587790875,23.8001953125L22.0408286875,23.8001953125C23.7854846875,23.8001953125,25.1998046875,22.3376583125,25.1998046875,20.5335293125L25.1986366875,16.1823653125L24.5094066875,16.0374073125C23.5724986875,15.8406733125,22.8991866875,14.9888173125,22.8991866875,14.0001955125C22.8991866875,13.0115728125,23.5724986875,12.159716612499999,24.5094066875,11.9629831125L25.1998046875,11.8180246125L25.1998046875,7.4668617125ZM22.0404086875,5.9819336125L5.958358287499999,5.9819336125C5.1657428875,5.9819336125,4.5224608875,6.6471457125,4.5224608875,7.4667821125L4.5224608875,10.436479612500001C5.9132859875,11.0369053125,6.8189658875,12.4427833125,6.8189658875,14.0013227125C6.8189658875,15.5598623125,5.9132859875,16.9657403125,4.5224608875,17.5661653125L4.5224608875,20.5334493125C4.5224608875,21.3530863125,5.1657428875,22.0182973125,5.958358287499999,22.0182973125L22.0404086875,22.0182973125C22.8330246875,22.0182973125,23.4763066875,21.3530863125,23.4763066875,20.5334493125L23.4763066875,17.5637523125C22.1229856875,16.979037312499997,21.2257616875,15.6294863125,21.1824376875,14.1134491125C21.1391166875,12.5974121125,21.9577106875,11.195429812499999,23.2752816875,10.5290966125L23.4763066875,10.436479612500001L23.4763066875,7.4667821125C23.4763066875,6.6471457125,22.8330246875,5.9819336125,22.0404086875,5.9819336125ZM17.158769687499998,11.6243076125C17.158769687499998,11.1322718125,16.7730446875,10.7333984125,16.2972306875,10.7333984125L11.7023591875,10.7333984125C11.2265443875,10.7333984125,10.8408202875,11.1322718125,10.8408202875,11.6243076125C10.8408202875,12.1163430125,11.2265443875,12.5152168125,11.7023591875,12.5152168125L16.2972306875,12.5152168125C16.7730446875,12.5152168125,17.158769687499998,12.1163430125,17.158769687499998,11.6243076125ZM17.158769687499998,16.3757723125C17.158769687499998,15.8837363125,16.7730446875,15.4848633125,16.2972306875,15.4848633125L11.7023591875,15.4848633125C11.2265443875,15.4848633125,10.8408202875,15.8837363125,10.8408202875,16.3757723125C10.8408202875,16.8678073125,11.2265443875,17.266681312499998,11.7023591875,17.266681312499998L16.2972306875,17.266681312499998C16.7730446875,17.266681312499998,17.158769687499998,16.8678073125,17.158769687499998,16.3757723125Z" fill-rule="evenodd" fill="#000000" fill-opacity="1"/></g></svg>