<svg xmlns="http://www.w3.org/2000/svg" xmlns:xlink="http://www.w3.org/1999/xlink" fill="none" version="1.1" width="28" height="28" viewBox="0 0 28 28"><rect x="0" y="0" width="28" height="28" rx="0" fill="#000000" fill-opacity="1" style="opacity:0;"/><path d="M20.8573016875,2.7998061180112C21.3386596875,2.7994151116,21.7883796875,3.0395660075,22.0558016875,3.4398059874999998L24.9583016875,7.7949308875C25.1161076875,8.0318636875,25.2001456875,8.3102550875,25.1998006875,8.5949306875L25.1998006875,21.9998036875C25.1998006875,23.7671146875,23.7671126875,25.1998046875,21.9997996875,25.1998046875L5.9998046875,25.1998046875C4.2324939875,25.1998046875,2.79980564117409,23.7671146875,2.79980564117409,21.9998036875L2.79980564117409,8.593430487500001C2.79949617392,8.3087415875,2.8835792315,8.0303487875,3.0414304475,7.7934302875L5.9438047874999995,3.4414305075C6.2111479875,3.0401296275,6.6616072875,2.79927492153,7.1438045875,2.79980564117415L20.8558006875,2.79980564117415L20.8573016875,2.7998061180112ZM23.5998016875,9.1998061875L4.3998050875,9.1998061875L4.3998050875,21.9998036875C4.3998050875,22.8834606875,5.1161493875,23.5998036875,5.9998046875,23.5998036875L21.9997996875,23.5998036875C22.8834566875,23.5998036875,23.5998016875,22.8834606875,23.5998016875,21.9998036875L23.5998016875,9.1998061875ZM13.1998046875,4.3998063875L7.2285546875,4.3998063875L5.0941803875,7.5998057875L13.1998036875,7.5998057875L13.1998046875,4.3998063875ZM20.7710536875,4.3998063875L14.7998016875,4.3998063875L14.7998016875,7.5998057875L22.9054236875,7.5998057875L20.7710536875,4.3998063875Z" fill="#000000" fill-opacity="1"/><path d="M10.227033910734864,17.559448245590822L10.227119360734862,17.55932009559082Q12.133137490734864,18.82999885559082,13.999999990734864,18.82999885559082Q15.866862790734864,18.82999885559082,17.772880990734862,17.55932009559082L17.772966390734865,17.55944806559082Q17.966909390734862,17.43015283559082,18.199999790734864,17.43015283559082Q18.27582259073486,17.43015289559082,18.350188290734863,17.44494521559082Q18.424554790734863,17.45973765559082,18.49460599073486,17.48875391559082Q18.564658190734864,17.51777017559082,18.627702690734864,17.55989527559082Q18.690747290734862,17.60202038559082,18.74436279073486,17.65563553559082Q18.797978390734862,17.70925062559082,18.840103190734865,17.77229535559082Q18.882227890734864,17.83534005559082,18.911244390734865,17.90539157559082Q18.940260890734862,17.97544309559082,18.955053290734863,18.04980936559082Q18.969845790734865,18.12417564559082,18.969845790734865,18.19999885559082Q18.969845790734865,18.29505249159082,18.94672589073486,18.38725143559082Q18.923605890734862,18.47945040559082,18.87875369073486,18.563256765590822Q18.833902390734863,18.647063165590822,18.77001289073486,18.71744316559082Q18.706123390734863,18.78782319559082,18.627033190734863,18.84054940559082L18.627119090734865,18.84067761559082Q16.333137490734863,20.36999895559082,13.999999990734864,20.36999865559082Q11.666862490734863,20.36999865559082,9.372881020734864,18.84067761559082L9.372966470734863,18.84054946559082Q9.293877060734863,18.78782319559082,9.229987680734864,18.71744316559082Q9.166098360734864,18.64706319559082,9.121246580734864,18.56325679559082Q9.076394800734864,18.47945040559082,9.053274510734862,18.38725145559082Q9.030154230734864,18.29505249159082,9.030154170734864,18.19999885559082Q9.030154230734864,18.12417564559082,9.044946550734863,18.04980936559082Q9.059738990734864,17.97544309559082,9.088755250734863,17.90539157559082Q9.117771510734864,17.83534005559082,9.159896610734863,17.77229535559082Q9.202021720734864,17.70925062559082,9.255636870734863,17.65563553559082Q9.309251960734864,17.60202038559082,9.372296690734863,17.55989527559082Q9.435341390734862,17.51777017559082,9.505392910734864,17.48875391559082Q9.575444430734864,17.45973765559082,9.649810700734863,17.444945275590822Q9.724176980734864,17.43015289559082,9.800000190734863,17.43015283559082Q10.033090800734863,17.43015283559082,10.227033910734864,17.559448245590822Z" fill-rule="evenodd" fill="#000000" fill-opacity="1"/></svg>