<svg xmlns="http://www.w3.org/2000/svg" xmlns:xlink="http://www.w3.org/1999/xlink" fill="none" version="1.1" width="28" height="28" viewBox="0 0 28 28"><rect x="0" y="0" width="28" height="28" rx="0" fill="#000000" fill-opacity="1" style="opacity:0;"/><g><path d="M2.3326821327209473,18.083659172058105L2.3326821327209473,7.5836591720581055Q2.3326821327209473,7.4117154720581055,2.3495355867209473,7.240599372058106Q2.3663890397209473,7.069483272058106,2.3999336357209473,6.900842872058106Q2.4334782327209474,6.732202972058106,2.483390922720947,6.5676626720581055Q2.5333036327209473,6.403122672058105,2.5991037227209475,6.244266972058106Q2.664903822720947,6.0854115720581055,2.7459576427209473,5.933770672058105Q2.8270114627209475,5.782129572058105,2.922538402720947,5.639163272058106Q3.0180653927209473,5.496197272058105,3.1271455327209474,5.363282672058105Q3.236225662720947,5.230368172058105,3.357808332720947,5.108785372058105Q3.4793911327209472,4.987202702058106,3.6123056327209473,4.878122572058105Q3.745220232720947,4.769042492058105,3.8881862327209475,4.673515502058105Q4.031152532720947,4.5779885320581055,4.182793532720948,4.496934712058105Q4.334434532720947,4.415880862058105,4.4932899327209475,4.350080762058106Q4.652145632720947,4.284280672058106,4.816685632720947,4.234367962058106Q4.981225932720948,4.184455272058106,5.1498658327209474,4.150910675058105Q5.318506232720948,4.1173660790581055,5.489622132720948,4.100512626058105Q5.660738432720947,4.0836591720581055,5.832682132720947,4.0836591720581055L22.166014132720946,4.0836591720581055Q22.337958132720946,4.0836591720581055,22.509076132720946,4.100512626058105Q22.680189132720947,4.1173660790581055,22.84883013272095,4.150910675058105Q23.01747013272095,4.184455272058106,23.182011132720948,4.234367962058106Q23.346548132720947,4.284280672058106,23.505404132720948,4.350080762058106Q23.664259132720947,4.415880862058105,23.815901132720946,4.4969346820581055Q23.967543132720948,4.577988502058106,24.11050813272095,4.673515442058106Q24.253476132720948,4.7690424320581055,24.386389132720947,4.878122572058105Q24.519305132720948,4.987202702058106,24.640887132720948,5.108785372058105Q24.762471132720947,5.230368172058105,24.871550132720948,5.363282672058105Q24.980631132720948,5.496197272058105,25.07615513272095,5.639163272058106Q25.171683132720947,5.782129572058105,25.25273713272095,5.933770572058106Q25.333792132720948,6.0854115720581055,25.39959013272095,6.244266972058106Q25.465392132720947,6.403122672058105,25.51530313272095,6.5676626720581055Q25.56521613272095,6.732202972058106,25.59876113272095,6.900842872058106Q25.632307132720946,7.069483272058106,25.64916113272095,7.240599172058106Q25.666014132720946,7.4117154720581055,25.666014132720946,7.5836591720581055L25.666014132720946,18.083659172058105Q25.666014132720946,18.255603172058105,25.64916113272095,18.426719172058107Q25.632307132720946,18.597834172058107,25.59876113272095,18.766474172058103Q25.56521613272095,18.935115172058104,25.515305132720947,19.099654172058106Q25.465392132720947,19.264194172058104,25.39959013272095,19.423049172058107Q25.333792132720948,19.581905172058107,25.25273713272095,19.733546172058105Q25.171683132720947,19.885188172058108,25.07615513272095,20.028153172058104Q24.980631132720948,20.171122172058105,24.871550132720948,20.304036172058105Q24.762471132720947,20.436950172058104,24.640887132720948,20.558532172058104Q24.519305132720948,20.680116172058106,24.386389132720947,20.789195172058104Q24.253474132720946,20.898276172058104,24.110506132720946,20.993800172058105Q23.967543132720948,21.089328172058107,23.815901132720946,21.170382172058105Q23.664259132720947,21.251437172058104,23.505404132720948,21.317235172058105Q23.346548132720947,21.383036172058105,23.182011132720948,21.432948172058104Q23.01747013272095,21.482861172058104,22.84883013272095,21.516406172058105Q22.680189132720947,21.549952172058106,22.509076132720946,21.566806172058104Q22.337958132720946,21.583659172058105,22.166014132720946,21.583659172058105L5.832682132720947,21.583659172058105Q5.660738432720947,21.583659172058105,5.4896223327209475,21.566806172058104Q5.318506232720948,21.549952172058106,5.1498658327209474,21.516406172058105Q4.981225932720948,21.482861172058104,4.816685632720947,21.432948172058104Q4.652145632720947,21.383036172058105,4.4932899327209475,21.317235172058105Q4.334434532720947,21.251437172058104,4.182793632720947,21.170382172058105Q4.031152532720947,21.089330172058105,3.8881862327209475,20.993802172058107Q3.745220232720947,20.898276172058104,3.6123056327209473,20.789195172058104Q3.4793911327209472,20.680116172058106,3.357808332720947,20.558532172058104Q3.236225662720947,20.436950172058104,3.1271455327209474,20.304036172058105Q3.0180654527209474,20.171122172058105,2.922538462720947,20.028153172058104Q2.8270114927209473,19.885188172058108,2.745957672720947,19.733547172058106Q2.664903822720947,19.581906172058105,2.5991037227209475,19.423050172058105Q2.5333036327209473,19.264195172058105,2.483390922720947,19.099654172058106Q2.4334782327209474,18.935115172058104,2.3999336357209473,18.766474172058103Q2.3663890397209473,18.597834172058107,2.3495355867209473,18.426719172058107Q2.3326821327209473,18.255603172058105,2.3326821327209473,18.083659172058105ZM4.082682132720947,7.5836591720581055L4.082682132720947,18.083659172058105C4.082682132720947,19.050157172058107,4.866183732720947,19.833659172058105,5.832682132720947,19.833659172058105L22.166016132720948,19.833659172058105C23.13251313272095,19.833659172058105,23.916016132720948,19.050157172058107,23.916016132720948,18.083659172058105L23.916016132720948,7.5836591720581055C23.916016132720948,6.617160772058106,23.13251313272095,5.8336591720581055,22.166016132720948,5.8336591720581055L5.832682632720948,5.8336591720581055C4.866183732720947,5.8336591720581055,4.082682132720947,6.617160772058106,4.082682132720947,7.5836591720581055ZM20.48731613272095,9.335358172058106C20.16626213272095,8.974173072058106,19.613200132720948,8.941639872058104,19.25201513272095,9.262693372058106L14.824207132720947,13.198522572058106L14.778359132720947,13.231953572058105C14.665970132720947,13.298206372058106,14.519743132720947,13.282317172058105,14.424195132720948,13.186767572058105L13.110342132720946,11.872915772058105L13.023065132720948,11.790539772058105C12.221317732720948,11.076612472058105,10.991835132720947,11.104071172058106,10.222990532720948,11.872915772058105L7.547947932720947,14.547957172058105L7.487882132720947,14.614413172058105C7.207573932720948,14.958089172058106,7.227596332720947,15.465043172058106,7.547947932720947,15.785394172058105C7.889657032720947,16.127103172058106,8.443676032720948,16.127103172058106,8.785384632720948,15.785394172058105L11.460426832720946,13.110352472058105L11.500821632720948,13.076603872058106C11.614494832720947,12.997856172058105,11.771658432720947,13.009105672058105,11.872906232720947,13.110352472058105L13.186758132720946,14.424205172058105L13.273552132720948,14.506139172058106C14.041518132720947,15.190234172058105,15.208808132720947,15.198076172058105,15.986843132720947,14.506489172058105L20.414652132720946,10.570659672058106L20.478514132720946,10.507846872058106C20.778521132720947,10.181222872058106,20.78830413272095,9.673968772058107,20.48731613272095,9.335358172058106ZM18.374674132720948,23.333659172058105L9.624674332720947,23.333659172058105C9.141425132720947,23.333659172058105,8.749674332720947,23.725409172058104,8.749674332720947,24.208659172058105C8.749674332720947,24.691909172058107,9.141425132720947,25.083659172058105,9.624674332720947,25.083659172058105L18.374674132720948,25.083659172058105C18.857924132720946,25.083659172058105,19.249674132720948,24.691909172058107,19.249674132720948,24.208659172058105C19.249674132720948,23.725409172058104,18.857924132720946,23.333659172058105,18.374674132720948,23.333659172058105Z" fill-rule="evenodd" fill="#000000" fill-opacity="1"/></g></svg>