<svg xmlns="http://www.w3.org/2000/svg" xmlns:xlink="http://www.w3.org/1999/xlink" fill="none" version="1.1" width="28" height="28" viewBox="0 0 28 28"><g><path d="M25.35063009375,8.24455690625L15.63589009375,3.30723550625C14.61081109375,2.78626003625,13.38756109375,2.78626003625,12.36248209375,3.30723550625L2.64774292375,8.24455690625C2.54177615375,8.298412806249999,2.45526394375,8.382351406249999,2.39975753475,8.48516650625C2.24910312175,8.764225006250001,2.36012996875,9.10894350625,2.64774292375,9.255117406250001L12.36248209375,14.19243790625C13.38756109375,14.71341390625,14.61081109375,14.71341390625,15.63589009375,14.19243790625L25.35063009375,9.255117406250001C25.45659409375,9.201261506249999,25.54310809375,9.11732240625,25.59861409375,9.01450780625C25.74926709375,8.73544930625,25.63824109375,8.39073040625,25.35063009375,8.24455690625ZM3.58829879375,13.01653890625L12.95051209375,17.825312906249998C13.57282809375,18.144967906250002,14.31271709375,18.16780090625,14.95183009375,17.89380890625L15.09742909375,17.825312906249998L24.43392609375,13.02866090625L25.35063009375,13.49455690625C25.63824109375,13.64072990625,25.74926709375,13.98544890625,25.59861409375,14.26450690625C25.54310809375,14.36732290625,25.45659409375,14.45126190625,25.35063009375,14.50511790625L15.63589009375,19.44243790625C14.61081109375,19.96341290625,13.38756109375,19.96341290625,12.36248209375,19.44243790625L2.64774292375,14.50511790625C2.36012996875,14.35894390625,2.24910312175,14.01422490625,2.39975753475,13.73516690625C2.45526394375,13.63235090625,2.54177615375,13.54841190625,2.64774292375,13.49455690625L3.58829879375,13.01653890625ZM3.58829879375,18.26653890625L12.95051209375,23.07531390625C13.57282809375,23.39496790625,14.31271709375,23.41780090625,14.95183009375,23.14380990625L15.09742909375,23.07531390625L24.43392609375,18.27866090625L25.35063009375,18.74455690625C25.63824109375,18.89072990625,25.74926709375,19.23544890625,25.59861409375,19.51450690625C25.54310809375,19.61732290625,25.45659409375,19.70126190625,25.35063009375,19.75511790625L15.63589009375,24.69243790625C14.61081109375,25.21341290625,13.38756109375,25.21341290625,12.36248209375,24.69243790625L2.64774292375,19.75511790625C2.36012996875,19.60894390625,2.24910312175,19.26422490625,2.39975753475,18.98516690625C2.45526394375,18.88235090625,2.54177615375,18.79841190625,2.64774292375,18.74455690625L3.58829879375,18.26653890625Z" fill-rule="evenodd" fill="#000000" fill-opacity="1"/></g></svg>