<svg xmlns="http://www.w3.org/2000/svg" xmlns:xlink="http://www.w3.org/1999/xlink" fill="none" version="1.1" width="28" height="28" viewBox="0 0 28 28"><g><path d="M16.916666,5.25C18.849663,5.25,20.416666,6.8170033,20.416666,8.75L20.416666,9.8333669L24.98888,6.5674992C25.513195,6.19298875,26.241837,6.3144290000000005,26.616348,6.8387437C26.757683,7.0366113,26.83366,7.2736947999999995,26.83366,7.5168548L26.83366,20.482747C26.83366,21.127079000000002,26.311325,21.649414,25.666992,21.649414C25.423832,21.649414,25.186749,21.573437,24.98888,21.432102L20.416666,18.166235L20.416666,19.25C20.416666,21.182996,18.849663,22.75,16.916666,22.75L5.25,22.75C3.3170033,22.75,1.75,21.182996,1.75,19.25L1.75,8.75C1.75,6.8170033,3.3170033,5.25,5.25,5.25L16.916666,5.25ZM16.916666,7L5.25,7C4.3180194,7,3.5561978,7.7285366,3.5029707,8.6471744L3.5,8.75L3.5,19.25C3.5,20.18198,4.2285366,20.943801999999998,5.1471744,20.997028999999998L5.25,21L16.916666,21C17.848648,21,18.61047,20.271463,18.663696,19.352826L18.666666,19.25L18.666666,8.75C18.666666,7.8180194,17.938129,7.0561978,17.019492,7.0029707000000005L16.916666,7ZM24.899183,8.7816639L20.416992,11.9830689L20.416992,16.015652L24.899183,19.217057C24.976402,19.27221,25.083658,19.217012,25.083658,19.122120000000002L25.083658,8.8766015C25.083658,8.781709,24.976402,8.7265108,24.899183,8.7816639Z" fill-rule="evenodd" fill="#000000" fill-opacity="0.8999999761581421"/></g><rect x="5.949999809265137" y="9.449999809265137" width="2.0999999046325684" height="2.0999999046325684" rx="1.0499999523162842" fill="#000000" fill-opacity="0.8999999761581421"/></svg>