<svg xmlns="http://www.w3.org/2000/svg" xmlns:xlink="http://www.w3.org/1999/xlink" fill="none" version="1.1" width="28" height="28" viewBox="0 0 28 28"><defs><clipPath id="master_svg0_20_5984"><rect x="0" y="0" width="28" height="28" rx="0"/></clipPath></defs><g clip-path="url(#master_svg0_20_5984)"><path d="M6.279111152316284,2.6000000381469683C7.319777752316284,2.6000000381469683,8.162888752316285,3.4446667446325683,8.162888752316285,4.485333304632569L8.162888752316285,4.5631111046325685L19.888666952316285,4.5631111046325685L19.888666952316285,6.448444104632568L8.162888752316285,6.448444104632568L8.162888752316285,6.580666304632569C8.162888752316285,7.621333104632568,7.319777752316284,8.464443704632568,6.279111152316284,8.464443704632568L5.859111052316284,8.464443704632568L5.859111052316284,19.353333904632567L6.279111152316284,19.353333904632567C7.319777752316284,19.353333904632567,8.162888752316285,20.19800090463257,8.162888752316285,21.23866590463257L8.162888752316285,21.367777904632568L19.888666952316285,21.367777904632568L19.888666952316285,23.253110904632567L8.162888752316285,23.253110904632567L8.162888752316285,23.33244290463257C8.162888752316285,24.374665904632568,7.319777752316284,25.21777690463257,6.279111152316284,25.21777690463257L4.183777852316284,25.21777690463257C3.1431109923162843,25.21777690463257,2.299999952316284,24.37310790463257,2.299999952316284,23.33244290463257L2.299999952316284,21.23866590463257C2.299999952316284,20.196444904632568,3.1431109923162843,19.353333904632567,4.183777852316284,19.353333904632567L3.9753332523162843,19.353333904632567L3.9753332523162843,8.464444604632568L4.183777852316284,8.464444604632568C3.1431109923162843,8.464444604632568,2.299999952316284,7.621333604632568,2.299999952316284,6.5806668046325685L2.299999952316284,4.485333304632569C2.299999952316284,3.443111064632568,3.1431109923162843,2.6000000381469683,4.183777852316284,2.5999999046325684L6.279111152316284,2.6000000381469683ZM21.774000952316285,8.464444604632568C20.733333952316283,8.464444604632568,19.890222952316286,7.619777704632568,19.890222952316286,6.5791111046325685L19.890222952316286,4.485333304632569C19.890222952316286,3.443111064632568,20.733333952316283,2.6000000381469683,21.774000952316285,2.5999999046325684L23.867777952316285,2.5999999046325684C24.910000952316285,2.5999999046325684,25.753109952316283,3.4446665046325684,25.753109952316283,4.485333304632569L25.753109952316283,6.5791111046325685C25.753109952316283,7.619777704632568,24.908441952316284,8.462888704632569,23.867777952316285,8.462888704632569L24.077778952316283,8.462888704632569L24.077778952316283,19.35177990463257L23.867777952316285,19.35177990463257C24.910000952316285,19.35177990463257,25.753109952316283,20.19644690463257,25.753109952316283,21.237111904632567L25.753109952316283,23.33088790463257C25.753109952316283,24.37311090463257,24.908441952316284,25.216219904632567,23.867777952316285,25.216219904632567L21.774000952316285,25.216219904632567C20.733333952316283,25.216219904632567,19.890222952316286,24.37155290463257,19.890222952316286,23.33088790463257L19.890222952316286,21.237111904632567C19.890222952316286,20.194888904632567,20.733333952316283,19.35177990463257,21.774000952316285,19.35177990463257L22.192446952316285,19.35177990463257L22.192446952316285,8.462889204632567L21.774000952316285,8.462889204632567L21.774000952316285,8.464444604632568ZM6.279110452316284,21.23555490463257L4.183777852316284,21.23555490463257L4.183777852316284,23.33088790463257L6.279111152316284,23.33088790463257L6.279111152316284,21.237111904632567L6.279110452316284,21.23555490463257ZM23.867777952316285,21.23555490463257L21.774000952316285,21.23555490463257L21.774000952316285,23.33088790463257L23.867777952316285,23.33088790463257L23.867777952316285,21.237111904632567L23.867777952316285,21.23555490463257ZM17.27222095231628,9.615555304632569C17.777531952316284,9.636093104632568,18.176606952316284,10.051715804632568,18.176606952316284,10.55744500463257C18.176606952316284,11.063173804632568,17.777531952316284,11.478797404632568,17.27222095231628,11.499333904632568L14.954442952316285,11.499333904632568L14.954442952316285,17.99066690463257C14.925751952316284,18.48943390463257,14.512923952316283,18.87919790463257,14.013331952316284,18.87919790463257C13.513740952316285,18.87919790463257,13.100912952316284,18.48943390463257,13.072220952316284,17.99066690463257L13.069110952316285,11.499333904632568L10.780888352316284,11.499333904632568C10.275576852316284,11.478795504632568,9.876503252316283,11.063172804632568,9.876503252316283,10.55744500463257C9.876503252316283,10.051715804632568,10.275576852316284,9.636093104632568,10.780888352316284,9.615555304632569L17.27222095231628,9.615555304632569ZM6.279111152316284,4.485333304632569L4.183777852316284,4.485333304632569L4.183777852316284,6.5791111046325685L6.279111152316284,6.5791111046325685L6.279111152316284,4.485333304632569ZM23.867777952316285,4.485333304632569L21.774000952316285,4.485333304632569L21.774000952316285,6.5791111046325685L23.867777952316285,6.5791111046325685L23.867777952316285,4.485333304632569Z" fill="#262626" fill-opacity="1" style="mix-blend-mode:passthrough"/></g></svg>