<svg xmlns="http://www.w3.org/2000/svg" xmlns:xlink="http://www.w3.org/1999/xlink" fill="none" version="1.1" width="28" height="28" viewBox="0 0 28 28"><path d="M3.44640639171875,5.99365477421875L5.99177191171875,3.44748377421875C6.33348031171875,3.10577535621875,6.88790271171875,3.10617756821875,7.22961191171875,3.44788655421875C7.57132051171875,3.78959554421875,7.57131961171875,4.34361467421875,7.22961191171875,4.6853236742187505L4.6838435117187505,7.23109147421875C4.34213461171875,7.57280107421875,3.78811425171875,7.57280107421875,3.44640529171875,7.23109147421875C3.10469740671875,6.8893842742187505,3.10469740671875,6.335363674218749,3.44640639171875,5.99365477421875ZM20.77173251171875,23.31736707421875L23.31749951171875,20.77160107421875C23.65920851171875,20.42989207421875,24.21322851171875,20.42989207421875,24.55493551171875,20.77160107421875C24.89664651171875,21.11330807421875,24.89664651171875,21.66732807421875,24.55493751171875,22.00903507421875L22.00896651171875,24.55460407421875C21.66725551171875,24.89631107421875,21.11343751171875,24.89651507421875,20.77173251171875,24.55480407421875C20.43002351171875,24.21309707421875,20.43002351171875,23.65907907421875,20.77173251171875,23.31736707421875ZM3.44640639171875,11.76755427421875L11.76667981171875,3.44768518421875C12.10838791171875,3.10597617921875,12.66260721171875,3.10537202621875,13.00431731171875,3.44708103421875C13.34602651171875,3.78878998421875,13.34602651171875,4.3428091742187505,13.00431731171875,4.68451807421875L4.6838435117187505,13.00499057421875C4.34213461171875,13.34670107421875,3.78811425171875,13.34670107421875,3.44640529171875,13.00499057421875C3.10469740671875,12.66328337421875,3.10469740671875,12.10926337421875,3.44640639171875,11.76755427421875ZM14.99702651171875,23.31736707421875L23.31749951171875,14.99689507421875C23.65920851171875,14.65518707421875,24.21322851171875,14.65518707421875,24.55493551171875,14.99689507421875C24.89664651171875,15.33860207421875,24.89664651171875,15.89262307421875,24.55493751171875,16.23433007421875L16.23446351171875,24.55480407421875C15.89275451171875,24.89651507421875,15.33873351171875,24.89651507421875,14.99702551171875,24.55480407421875C14.65531751171875,24.21309707421875,14.65531751171875,23.65907907421875,14.99702651171875,23.31736707421875ZM3.44761360171875,17.54266307421875L17.54279451171875,3.44748377421875C17.88450251171875,3.10577479721875,18.43852251171875,3.10577479721875,18.78023151171875,3.44748324421875C19.121940511718748,3.78919279421875,19.12193951171875,4.34321187421875,18.78023151171875,4.68492087421875L4.68505071171875,18.78010107421875C4.34334291171875,19.12180907421875,3.7893236917187503,19.12180907421875,3.44761360171875,18.78010007421875C3.10590571171875,18.43839107421875,3.10590571171875,17.88437107421875,3.44761360171875,17.54266307421875ZM9.22232011171875,23.31736907421875L23.31749951171875,9.22218987421875C23.65920851171875,8.88048127421875,24.21323051171875,8.88048127421875,24.55493751171875,9.22218897421875C24.89664651171875,9.56389807421875,24.89664651171875,10.117917074218749,24.55493551171875,10.45962617421875L10.45975591171875,24.55480407421875C10.118048211718751,24.89651107421875,9.56402871171875,24.89651507421875,9.22232011171875,24.55480407421875C8.88061191171875,24.21309707421875,8.88061191171875,23.65907907421875,9.22232011171875,23.31736907421875ZM3.44761580171875,23.31736707421875L23.31749951171875,3.44748377421875C23.65920851171875,3.10577479721875,24.21262551171875,3.10597673821875,24.55433251171875,3.44768518421875C24.89603951171875,3.78939306421875,24.89603951171875,4.34341337421875,24.55433251171875,4.68512117421875L4.6850518117187505,24.55480407421875C4.34334171171875,24.89651507421875,3.78932255171875,24.89651107421875,3.44761470171875,24.55480407421875C3.10590571171875,24.21309707421875,3.10590571171875,23.65907907421875,3.44761580171875,23.31736707421875Z" fill="#000000" fill-opacity="0.8999999761581421"/></svg>