<svg xmlns="http://www.w3.org/2000/svg" xmlns:xlink="http://www.w3.org/1999/xlink" fill="none" version="1.1" width="28" height="28" viewBox="0 0 28 28"><g><path d="M25.66650593713379,14.000011505859375C25.66650593713379,20.443334505859376,20.44316093713379,25.666679505859374,13.999837937133789,25.666679505859374C7.556514737133789,25.666679505859374,2.333169937133789,20.443334505859376,2.333169937133789,14.000011505859375C2.333169937133789,7.556688305859375,7.556514737133789,2.333343505859375,13.999837937133789,2.333343505859375C20.44316093713379,2.333343505859375,25.66650593713379,7.556688305859375,25.66650593713379,14.000011505859375ZM12.161397937133788,4.253635905859375Q13.064376937133789,4.083343605859375,13.999837937133789,4.083343605859375Q15.89137793713379,4.083343605859375,17.65010993713379,4.779609705859375Q19.55972093713379,5.5356078058593745,21.01198193713379,6.987868305859375Q22.46424893713379,8.440135505859375,23.22023993713379,10.349738105859375Q23.91650393713379,12.108470005859376,23.91650393713379,14.000011505859375Q23.91650393713379,15.891553505859376,23.22023993713379,17.650283505859377Q22.46424493713379,19.559890505859375,21.01198193713379,21.012155505859376Q19.55971493713379,22.464422505859375,17.65010993713379,23.220413505859376Q15.89137993713379,23.916677505859376,13.999837937133789,23.916677505859376Q13.087057937133789,23.916677505859376,12.20519733713379,23.754541505859375Q12.735479937133789,22.617521505859376,13.020423937133788,21.273807505859374C13.08867793713379,20.951944505859377,12.858754937133789,20.643482505859374,12.53565093713379,20.581354505859377Q11.30096053713379,20.343938505859374,10.303228837133789,19.845073505859375Q8.96347193713379,19.175195505859374,8.06494383713379,18.044184505859377C7.942011337133789,17.889421505859374,7.875096337133789,17.697597505859378,7.875096337133789,17.499950505859374C7.875096337133789,17.016701505859373,8.266847137133789,16.624950505859374,8.75009633713379,16.624950505859374C9.01697163713379,16.624950505859374,9.269257037133789,16.746744505859375,9.43524883713379,16.955715505859374Q10.092503037133788,17.783150505859375,11.085853537133788,18.279825505859375Q11.807892837133789,18.640846505859376,12.713399937133788,18.832067505859374C13.04722193713379,18.902561505859374,13.346862937133789,18.644420505859376,13.350399937133789,18.303254505859375Q13.35771693713379,17.597446505859374,13.28892193713379,16.939379505859375L16.09398693713379,16.625380505859376Q17.09803393713379,16.512987505859375,17.612174937133787,15.647399505859376Q18.13263093713379,14.771180505859375,17.72963093713379,13.836050505859374Q16.709667937133787,11.469305005859376,15.34063593713379,9.105264705859376Q13.93506293713379,6.678124405859375,12.161397937133788,4.253635905859375ZM9.916763337133789,11.666616405859376C10.56109523713379,11.666616405859376,11.083429337133788,10.883114805859375,11.083429337133788,9.916616405859376C11.083429337133788,8.950117605859376,10.56109523713379,8.166616005859375,9.916763337133789,8.166616005859375C9.27243093713379,8.166616005859375,8.75009633713379,8.950117605859376,8.75009633713379,9.916616405859376C8.75009633713379,10.883114805859375,9.27243093713379,11.666616405859376,9.916763337133789,11.666616405859376ZM16.33316993713379,17.791351505859375L19.83316993713379,17.791351505859375C20.31641993713379,17.791351505859375,20.70816993713379,18.183102505859374,20.70816993713379,18.666351505859375C20.70816993713379,19.149600505859375,20.31641993713379,19.541351505859375,19.83316993713379,19.541351505859375L16.33316993713379,19.541351505859375C15.849920937133788,19.541351505859375,15.458169937133789,19.149600505859375,15.458169937133789,18.666351505859375C15.458169937133789,18.183102505859374,15.849920937133788,17.791351505859375,16.33316993713379,17.791351505859375ZM14.77609993713379,21.782600505859374C14.479405937133789,21.634252505859376,14.292153937133788,21.331272505859374,14.292153937133788,20.999847505859375C14.292153937133788,20.516597505859377,14.683905937133789,20.124847505859375,15.167153937133788,20.124847505859375C15.302993937133788,20.124847505859375,15.436967937133788,20.156475505859376,15.55846593713379,20.217224505859374L16.72480093713379,20.800390505859376C17.02156793713379,20.948774505859376,17.208820937133787,21.251754505859374,17.208820937133787,21.583181505859375C17.208820937133787,22.066429505859375,16.817069937133788,22.458181505859375,16.333820937133787,22.458181505859375C16.19798193713379,22.458181505859375,16.064007937133788,22.426553505859374,15.942509937133789,22.365804505859376L14.77609993713379,21.782600505859374Z" fill-rule="evenodd" fill="#000000" fill-opacity="0.8999999761581421"/></g></svg>