<svg xmlns="http://www.w3.org/2000/svg" xmlns:xlink="http://www.w3.org/1999/xlink" fill="none" version="1.1" width="28" height="28" viewBox="0 0 28 28"><path d="M6.2692601281249996,23.333332C4.174183228125,23.333332,2.548441608125,21.505116,2.793233007125,19.424388L4.303036828125,6.5910556C4.510406828125,4.8284105,6.004262228125,3.5,7.779063728125,3.5L20.220983828125,3.5C21.995784828125,3.5,23.489638828125,4.8284105,23.697009828125,6.5910556L25.206811828125,19.424387C25.451606828125,21.505116,23.825864828125,23.333332,21.730786828125,23.333332L6.2692601281249996,23.333332ZM4.9615280281250005,20.996233Q4.4394495281249995,20.409132,4.531246428125,19.62886L6.041050428125001,6.7955279Q6.118814228125,6.1345355999999995,6.616163528125,5.6922679Q7.113513028125,5.25,7.779063728125,5.25L20.220981828125,5.25Q20.886533828125,5.25,21.383884828125,5.6922679Q21.881230828125,6.1345351,21.958997828125,6.7955277L23.468799828125,19.62886Q23.560598828125,20.409134,23.038520828125,20.996233Q22.516442828125,21.583332,21.730786828125,21.583332L6.2692601281249996,21.583332Q5.483606128125,21.583332,4.9615280281250005,20.996233Z" fill-rule="evenodd" fill="#000000" fill-opacity="1"/><path d="M7.308741021875,8.9216068L7.308741021875,8.9216068Q7.944113666875,12.098135899999999,9.589696146875,13.743718099999999Q11.304309846875,15.458333,14.000081046875,15.458333Q16.695851346875,15.458333,18.410465046875,13.743718099999999Q20.055925046875,12.0982571,20.691262046875,8.9224017L20.691405046874998,8.9216863C20.702723046875,8.86510003,20.708414046875,8.80762047,20.708414046875,8.75C20.708414046875,8.26675078,20.316663046875,7.875,19.833414046875,7.875C19.416319046875,7.875,19.057205046874998,8.16940221,18.975407046875,8.57839835Q18.444028046874998,11.2352805,17.173028946875,12.506281399999999Q15.970977746875,13.708333,14.000081046875,13.708333Q12.029184846875001,13.708333,10.827133146875,12.506281399999999Q9.556132546875,11.2352808,9.024756046875,8.57839835C8.942956846875,8.16940221,8.583843946875,7.875,8.166748046875,7.875C7.683498826875,7.875,7.291748046875,8.26675078,7.291748046875,8.75C7.291748046875,8.80762047,7.297439654375,8.86510003,7.308741021875,8.9216068Z" fill-rule="evenodd" fill="#000000" fill-opacity="1"/></svg>