<svg xmlns="http://www.w3.org/2000/svg" xmlns:xlink="http://www.w3.org/1999/xlink" fill="none" version="1.1" width="28" height="28" viewBox="0 0 28 28"><defs><mask id="master_svg0_20_5971" style="mask-type:alpha" maskUnits="userSpaceOnUse" x="0" y="0" width="28" height="28"><rect x="0" y="0" width="28" height="28" rx="0" fill="#FFFFFF" fill-opacity="1"/></mask></defs><g mask="url(#master_svg0_20_5971)"><g><path d="M14,26C20.627417,26,26,20.627417,26,14C26,7.3725824,20.627417,2,14,2C7.3725824,2,2,7.3725824,2,14C2,20.627417,7.3725824,26,14,26ZM23.534554,10.2253561Q24.254543,12.044013,24.254543,14Q24.254543,15.955991,23.534555,17.774644000000002Q22.752802,19.749315,21.251059,21.251059Q19.749319,22.752798,17.774644000000002,23.534554Q15.955986,24.254543,14,24.254543Q12.044008,24.254543,10.2253561,23.534555Q8.2506866,22.752802,6.7489409,21.251059Q5.2471986,19.749317,4.4654434,17.774644000000002Q3.7454545,15.955988,3.7454544,14Q3.7454544,12.04401,4.4654434,10.2253561Q5.2471979,8.2506843,6.7489409,6.7489409Q8.2506843,5.2471979,10.2253561,4.4654434Q12.04401,3.7454545,14,3.7454544Q15.955988,3.7454544,17.774644000000002,4.4654434Q19.749315,5.2471988,21.251059,6.7489409Q22.752798,8.250682399999999,23.534554,10.2253561ZM13.99945,8.25Q13.917074,8.25,13.836283,8.2660704Q13.755491,8.2821407,13.679386,8.3136635Q13.603282,8.3451872,13.53479,8.3909521Q13.466298,8.436717,13.408051,8.4949646Q13.349802,8.5532122,13.304037,8.621704600000001Q13.258272,8.690196,13.226749,8.7663007Q13.195227,8.8424048,13.179156,8.9231968Q13.163086,9.0039887,13.163086,9.0863638L13.163086,18.913635Q13.163086,18.99601,13.179155,19.076799Q13.195227,19.157591,13.226749,19.233696Q13.258272,19.309799,13.304037,19.378292Q13.349802,19.446785,13.408051,19.505033Q13.466298,19.56328,13.53479,19.609043Q13.603282,19.654808,13.679386,19.686333Q13.755491,19.717857,13.836283,19.733929Q13.917074,19.75,13.99945,19.75Q14.081823,19.75,14.162615,19.733929Q14.243406,19.717857,14.319511,19.686335Q14.395616,19.65481,14.464108,19.609045Q14.5326,19.56328,14.590848,19.505033Q14.649095,19.446785,14.69486,19.378292Q14.740623,19.309799,14.772148,19.233696Q14.803671,19.157591,14.819741,19.076799Q14.835813,18.99601,14.835814,18.913635L14.835814,9.0863638Q14.835813,9.0039887,14.819742,8.9231968Q14.803671,8.8424044,14.772147,8.7663002Q14.740623,8.690196,14.69486,8.621704099999999Q14.649094,8.5532122,14.590847,8.4949646Q14.532598,8.436717,14.464108,8.3909521Q14.395615,8.3451872,14.31951,8.3136635Q14.243406,8.2821407,14.162615,8.2660704Q14.081823,8.25,13.99945,8.25ZM10.0263672,11.1771841L10.0263672,16.822637999999998Q10.0263672,16.905012,10.0424376,16.985805Q10.0585079,17.066596,10.0900307,17.142699999999998Q10.1215544,17.218803,10.1673193,17.287295999999998Q10.2130842,17.355787,10.2713318,17.414036Q10.3295794,17.472282999999997,10.3980713,17.518047Q10.4665632,17.563812,10.5426674,17.595335Q10.6187725,17.62686,10.699564,17.64293Q10.7803555,17.659001,10.862731,17.659002Q10.9451046,17.659001,11.0258961,17.642931Q11.1066875,17.62686,11.1827927,17.595337Q11.2588968,17.563813,11.3273888,17.518048Q11.3958807,17.472282999999997,11.4541283,17.414036Q11.5123758,17.355787,11.5581408,17.287295Q11.6039057,17.218803,11.6354294,17.142699Q11.6669531,17.066595,11.6830244,16.985804Q11.6990948,16.905012,11.6990948,16.822637999999998L11.6990948,11.1771841Q11.6990948,11.0948086,11.6830235,11.0140171Q11.6669531,10.9332247,11.6354294,10.8571205Q11.6039066,10.7810154,11.5581417,10.7125244Q11.5123768,10.6440315,11.4541292,10.5857849Q11.3958817,10.5275364,11.3273897,10.4817715Q11.2588978,10.4360065,11.1827927,10.4044838Q11.1066875,10.372961,11.0258961,10.3568907Q10.9451046,10.3408203,10.862731,10.3408203Q10.7803555,10.3408203,10.699564,10.3568907Q10.6187725,10.372961,10.5426674,10.4044838Q10.4665632,10.4360065,10.3980713,10.4817715Q10.3295794,10.5275364,10.2713318,10.5857849Q10.2130842,10.6440315,10.1673193,10.7125244Q10.1215544,10.7810154,10.0900307,10.8571205Q10.0585079,10.9332247,10.0424376,11.0140171Q10.0263672,11.0948086,10.0263672,11.1771841ZM16.299315999999997,11.1771841L16.299315999999997,16.822637999999998Q16.299315,16.905012,16.315386,16.985805Q16.331455,17.066596,16.362979,17.142699999999998Q16.394503,17.218803,16.440268,17.287295999999998Q16.486032,17.355787,16.544280999999998,17.414036Q16.602529,17.472282999999997,16.671021,17.518047Q16.739511,17.563812,16.815616,17.595335Q16.89172,17.62686,16.972512000000002,17.64293Q17.053305,17.659001,17.13568,17.659002Q17.218054000000002,17.659001,17.298845,17.642931Q17.379637000000002,17.62686,17.455741,17.595337Q17.531845,17.563813,17.600337,17.518048Q17.668829000000002,17.472282999999997,17.727077,17.414036Q17.785324,17.355787,17.831089,17.287295Q17.876854,17.218803,17.908377,17.142699Q17.9399,17.066595,17.955973,16.985804Q17.972043,16.905012,17.972044,16.822637999999998L17.972044,11.1771841Q17.972043,11.0948086,17.955973,11.0140171Q17.9399,10.9332247,17.908377,10.8571205Q17.876854,10.7810154,17.831089,10.7125244Q17.785324,10.6440315,17.727077,10.5857849Q17.668829000000002,10.5275364,17.600337,10.4817715Q17.531845,10.4360065,17.455741,10.4044838Q17.379637000000002,10.372961,17.298845,10.3568907Q17.218054000000002,10.3408203,17.13568,10.3408203Q17.053305,10.3408203,16.972512000000002,10.3568907Q16.89172,10.372961,16.815616,10.4044838Q16.739511,10.4360065,16.67102,10.4817715Q16.602528,10.5275364,16.54428,10.5857849Q16.486032,10.6440315,16.440267,10.7125244Q16.394502,10.7810154,16.362978,10.8571205Q16.331455,10.9332247,16.315385,11.0140171Q16.299315,11.0948086,16.299315999999997,11.1771841ZM6.8901367,13.268004L6.8901367,14.731641Q6.8901367,14.814014,6.9062071,14.894807Q6.9222775,14.975597,6.9538007,15.051702Q6.9853239,15.127806,7.0310888,15.196298Q7.0768538,15.26479,7.1351013,15.323038Q7.1933489,15.381286,7.2618408,15.427051Q7.3303328,15.472816,7.4064369,15.504339Q7.4825411,15.535863,7.5633335,15.551933Q7.6441255,15.568005,7.7265005,15.568005Q7.8088751,15.568005,7.8896666,15.551933Q7.9704585,15.535863,8.046562699999999,15.504339Q8.1226664,15.472816,8.1911583,15.427051Q8.2596502,15.381286,8.3178983,15.323038Q8.3761458,15.26479,8.4219108,15.196298Q8.4676752,15.127806,8.4991989,15.051702Q8.5307221,14.975598,8.546793000000001,14.894807Q8.5628633,14.814014,8.562863799999999,14.731641L8.562863799999999,13.268004Q8.5628633,13.185629,8.546793000000001,13.104837Q8.5307221,13.024046,8.4991989,12.947941Q8.4676752,12.871837,8.4219103,12.803345Q8.3761454,12.734853,8.3178978,12.676605Q8.2596502,12.618358,8.1911583,12.572593Q8.1226664,12.526828,8.0465622,12.495304Q7.970458,12.463781,7.8896666,12.447711Q7.8088751,12.431641,7.7265005,12.431641Q7.6441255,12.431641,7.5633335,12.447711Q7.4825416,12.463781,7.4064374,12.495304Q7.3303332,12.526828,7.2618413,12.572593Q7.1933494,12.618358,7.1351018,12.676605Q7.0768538,12.734853,7.0310893,12.803345Q6.9853239,12.871837,6.9538007,12.947941Q6.9222775,13.024046,6.9062071,13.104837Q6.8901367,13.185629,6.8901367,13.268004ZM19.435547,13.268004L19.435547,14.731641Q19.435547,14.814014,19.451616,14.894807Q19.467688,14.975597,19.49921,15.051702Q19.530733,15.127806,19.576498,15.196298Q19.622263,15.26479,19.680511,15.323038Q19.73876,15.381286,19.807253,15.427051Q19.875744,15.472816,19.951847,15.504339Q20.027952,15.535863,20.108744,15.551933Q20.189537,15.568005,20.271912,15.568005Q20.354286,15.568005,20.435078,15.551933Q20.515869,15.535863,20.591972,15.504339Q20.668076,15.472816,20.736568,15.427051Q20.805059,15.381286,20.863308,15.323038Q20.921555,15.26479,20.967318,15.196298Q21.013083,15.127806,21.044607,15.051702Q21.07613,14.975598,21.092201,14.894807Q21.108273,14.814014,21.108274,14.731641L21.108274,13.268004Q21.108273,13.185629,21.092203,13.104837Q21.076134,13.024046,21.044609,12.947941Q21.013084,12.871837,20.967319,12.803345Q20.921555,12.734853,20.863308,12.676605Q20.805059,12.618358,20.736568,12.572593Q20.668076,12.526828,20.591972,12.495304Q20.515869,12.463781,20.435078,12.447711Q20.354286,12.431641,20.271912,12.431641Q20.189537,12.431641,20.108746,12.447711Q20.027952,12.463781,19.951847,12.495304Q19.875744,12.526828,19.807251,12.572593Q19.73876,12.618358,19.680511,12.676605Q19.622263,12.734853,19.576498,12.803345Q19.530733,12.871837,19.49921,12.947941Q19.467688,13.024046,19.451618,13.104837Q19.435547,13.185629,19.435547,13.268004Z" fill-rule="evenodd" fill="#000000" fill-opacity="1"/></g></g></svg>