<svg xmlns="http://www.w3.org/2000/svg" xmlns:xlink="http://www.w3.org/1999/xlink" fill="none" version="1.1" width="28" height="28" viewBox="0 0 28 28"><g><path d="M25.66652291796875,13.999994247070312C25.66652291796875,20.44331724707031,20.44317991796875,25.66666024707031,13.99985691796875,25.66666024707031C7.55653521796875,25.66666024707031,2.33319091796875,20.44331724707031,2.33319091796875,13.999994247070312C2.33319091796875,7.556672547070312,7.55653521796875,2.3333282470703125,13.99985691796875,2.3333282470703125C14.47905491796875,2.3333282470703125,14.78343391796875,2.4365753970703126,14.96687591796875,2.6248330470703127L14.96862291796875,2.6248321570703124Q17.84462191796875,5.231891347070313,20.45236991796875,7.839641547070313Q23.01821091796875,10.405482247070312,25.33621391796875,12.994136247070312C25.54890491796875,13.210430247070313,25.66652291796875,13.530643247070312,25.66652291796875,13.999994247070312ZM22.77756491796875,14.346241247070312Q23.52078791796875,14.314560247070313,23.91142091796875,14.325665247070312Q23.85349691796875,16.167715247070312,23.13794291796875,17.859472247070315Q22.38536091796875,19.638778247070313,21.01199891796875,21.012136247070313Q19.63864091796875,22.385498247070313,17.859334917968752,23.13807824707031Q16.01855791796875,23.91666024707031,13.99985691796875,23.91666024707031Q11.98115061796875,23.91666024707031,10.14038041796875,23.138080247070313Q8.361075917968751,22.38550024707031,6.98771521796875,21.012136247070313Q5.614357717968749,19.63878024707031,4.86177421796875,17.859472247070315Q4.08319201796875,16.018697247070314,4.08319201796875,13.999994247070312Q4.08319091796875,11.981292747070313,4.8617730179687495,10.140517747070312Q5.61435631796875,8.361211747070312,6.98771521796875,6.987852547070313Q8.36107161796875,5.614495547070312,10.14038041796875,4.861911547070313Q11.68945501796875,4.2067085470703125,13.36453291796875,4.102881047070312Q13.33859391796875,4.245887447070313,13.30623291796875,4.419020147070313Q13.12898291796875,5.367300047070312,13.06901091796875,5.919928547070313Q12.95907591796875,6.932942847070312,13.05088691796875,7.810463947070312Q13.30489491796875,10.238241647070312,15.09575291796875,12.029098547070312Q16.79002791796875,13.723372247070312,19.22214091796875,14.190941247070313Q20.10270491796875,14.360227247070313,21.15352991796875,14.379728247070313Q21.73764991796875,14.390568247070313,22.77756491796875,14.346241247070312Z" fill-rule="evenodd" fill="#000000" fill-opacity="0.8999999761581421"/></g></svg>